<?xml version="1.0" encoding="UTF-8"?>
<svg width="48" height="48" viewBox="0 0 48 48" fill="none" xmlns="http://www.w3.org/2000/svg">
  <rect width="48" height="48" rx="8" fill="#4F46E5"/>
  <path d="M12 24C12 22.8954 12.8954 22 14 22H34C35.1046 22 36 22.8954 36 24C36 25.1046 35.1046 26 34 26H14C12.8954 26 12 25.1046 12 24Z" fill="white"/>
  <path d="M22 12C22 10.8954 22.8954 10 24 10C25.1046 10 26 10.8954 26 12V36C26 37.1046 25.1046 38 24 38C22.8954 38 22 37.1046 22 36V12Z" fill="white"/>
</svg>
