<?xml version="1.0" encoding="UTF-8"?>
<svg width="128" height="128" viewBox="0 0 128 128" fill="none" xmlns="http://www.w3.org/2000/svg">
  <rect width="128" height="128" rx="20" fill="#4F46E5"/>
  <path d="M32 64C32 61.7909 33.7909 60 36 60H92C94.2091 60 96 61.7909 96 64C96 66.2091 94.2091 68 92 68H36C33.7909 68 32 66.2091 32 64Z" fill="white"/>
  <path d="M60 32C60 29.7909 61.7909 28 64 28C66.2091 28 68 29.7909 68 32V96C68 98.2091 66.2091 100 64 100C61.7909 100 60 98.2091 60 96V32Z" fill="white"/>
</svg>
